<svg width="32" height="32" viewBox="0 0 32 32" fill="none" xmlns="http://www.w3.org/2000/svg">
<g id="Add">
<rect width="32" height="32" rx="11.7333" fill="#FBFCFF"/>
<path id="Squircle" d="M1.33333 16C1.33333 19.2636 1.50994 21.7951 1.9487 23.7694C2.3841 25.7285 3.0597 27.0561 4.00181 27.9982C4.94391 28.9403 6.27154 29.6159 8.23064 30.0513C10.2049 30.4901 12.7364 30.6667 16 30.6667C19.2636 30.6667 21.7951 30.4901 23.7694 30.0513C25.7285 29.6159 27.0561 28.9403 27.9982 27.9982C28.9403 27.0561 29.6159 25.7285 30.0513 23.7694C30.4901 21.7951 30.6667 19.2636 30.6667 16C30.6667 12.7364 30.4901 10.2049 30.0513 8.23064C29.6159 6.27154 28.9403 4.94391 27.9982 4.00181C27.0561 3.0597 25.7285 2.3841 23.7694 1.9487C21.7951 1.50994 19.2636 1.33333 16 1.33333C12.7364 1.33333 10.2049 1.50994 8.23064 1.9487C6.27154 2.3841 4.94391 3.0597 4.00181 4.00181C3.0597 4.94391 2.3841 6.27154 1.9487 8.23064C1.50994 10.2049 1.33333 12.7364 1.33333 16Z" stroke="#666666" stroke-width="2.66667" stroke-linecap="round" stroke-linejoin="round"/>
<path id="Vector 193" d="M16.0001 10.668V16.0013M16.0001 21.3346V16.0013M16.0001 16.0013H21.3334H10.6667" stroke="#666666" stroke-width="2.66667" stroke-linecap="round" stroke-linejoin="round"/>
</g>
</svg>
