<svg width="24" height="25" viewBox="0 0 24 25" fill="none" xmlns="http://www.w3.org/2000/svg">
<g id="Document Align Center 1">
<path id="Squircle" d="M1 12.5C1 14.9477 1.13246 16.8463 1.46153 18.327C1.78807 19.7963 2.29478 20.7921 3.00136 21.4986C3.70794 22.2052 4.70365 22.7119 6.17298 23.0385C7.65366 23.3675 9.55232 23.5 12 23.5C14.4477 23.5 16.3463 23.3675 17.827 23.0385C19.2963 22.7119 20.2921 22.2052 20.9986 21.4986C21.7052 20.7921 22.2119 19.7963 22.5385 18.327C22.8675 16.8463 23 14.9477 23 12.5C23 10.0523 22.8675 8.15366 22.5385 6.67298C22.2119 5.20365 21.7052 4.20794 20.9986 3.50136C20.2921 2.79478 19.2963 2.28807 17.827 1.96153C16.3463 1.63246 14.4477 1.5 12 1.5C9.55232 1.5 7.65366 1.63246 6.17298 1.96153C4.70365 2.28807 3.70794 2.79478 3.00136 3.50136C2.29478 4.20794 1.78807 5.20365 1.46153 6.67298C1.13246 8.15366 1 10.0523 1 12.5Z" stroke="#212135" stroke-width="2" stroke-linecap="round" stroke-linejoin="round"/>
<path id="Vector 1" d="M10 7.5H14" stroke="#212135" stroke-width="2" stroke-linecap="round" stroke-linejoin="round"/>
<path id="Vector 2" d="M7 12.5H17" stroke="#212135" stroke-width="2" stroke-linecap="round" stroke-linejoin="round"/>
<path id="Vector 3" d="M10 17.5L14 17.5" stroke="#212135" stroke-width="2" stroke-linecap="round" stroke-linejoin="round"/>
</g>
</svg>
