<svg width="28" height="32" viewBox="0 0 28 32" fill="none" xmlns="http://www.w3.org/2000/svg">
<path d="M9.73911 29.2188C11.8261 31.0738 16 31.0738 18.0869 29.2188" stroke="#666666" stroke-width="2.78261" stroke-linecap="round" stroke-linejoin="round"/>
<path fill-rule="evenodd" clip-rule="evenodd" d="M15.3025 1.46377C15.3037 1.43977 15.3043 1.41561 15.3043 1.3913C15.3043 0.622908 14.6814 0 13.913 0C13.1446 0 12.5217 0.622908 12.5217 1.3913C12.5217 1.41563 12.5223 1.4398 12.5236 1.46382C7.86596 2.13513 3.48336 7.37319 4.17395 13.2174C4.53163 15.0058 3.40544 15.9532 2.23325 16.9394C1.12561 17.8713 -0.023101 18.8377 0.000321744 20.5808C0.000321744 23.0239 1.39129 24.3478 3.43412 25.0044C3.43412 25.0044 7.17546 26.4348 13.9132 26.4348C20.6509 26.4348 24.3922 25.0044 24.3922 25.0044C26.435 24.3478 27.8264 22.9565 27.8261 20.5808C27.8258 18.8227 26.6778 17.8559 25.5763 16.9283C24.4093 15.9455 23.2945 15.0068 23.6524 13.2174C24.343 7.37304 19.9602 2.13487 15.3025 1.46377ZM6.16026 16.8181C6.86513 15.7036 7.20474 14.3541 6.92756 12.8039C6.68778 10.5525 7.47309 8.37468 8.83498 6.7334C10.2431 5.03635 12.0352 4.17391 13.5222 4.17391H14.3041C15.7912 4.17391 17.5832 5.03635 18.9914 6.7334C20.3533 8.37465 21.1386 10.5524 20.8988 12.8038C20.623 14.3455 20.9536 15.691 21.6552 16.8071C22.2641 17.7756 23.12 18.4971 23.6443 18.9391L23.684 18.9726C25.0017 20.084 25.0434 20.2568 25.0434 20.5812C25.0435 21.1879 24.8811 21.483 24.7339 21.6604C24.5566 21.8741 24.2068 22.1412 23.5408 22.3553L23.469 22.3783L23.4089 22.4013L23.4045 22.4029C23.3923 22.4073 23.3659 22.4167 23.3256 22.4304C23.2449 22.4577 23.1083 22.5022 22.9174 22.5583C22.5355 22.6706 21.9361 22.8296 21.1306 22.9916C19.52 23.3156 17.0843 23.6522 13.9132 23.6522C10.742 23.6522 8.30632 23.3156 6.6958 22.9916C5.89031 22.8296 5.29092 22.6706 4.90899 22.5583C4.71804 22.5022 4.5815 22.4577 4.5008 22.4304C4.46046 22.4167 4.43408 22.4073 4.42185 22.4029L4.4184 22.4017L4.4183 22.4017L4.41744 22.4013L4.35737 22.3783L4.28558 22.3553C3.58813 22.1311 3.24703 21.8696 3.08239 21.6735C2.95362 21.5201 2.78293 21.2364 2.78293 20.5808V20.5621L2.78268 20.5434C2.77896 20.2665 2.78588 20.1126 4.123 18.9859L4.16316 18.9521C4.69018 18.5083 5.5484 17.7856 6.16026 16.8181Z" fill="#666666"/>
</svg>
