<svg width="43" height="43" viewBox="0 0 43 43" fill="none" xmlns="http://www.w3.org/2000/svg">
<circle cx="21.1017" cy="21.1017" r="20.6017" fill="#FFF9F9" stroke="#FF3535"/>
<rect width="19" height="19" transform="translate(12 12)" fill="#FFF9F9"/>
<path d="M21.9251 23.7803C22.4863 24.1756 23.0747 24.508 23.6812 24.7596C24.0577 24.8962 24.6486 24.5095 25.0831 24.2251L25.0831 24.2251C25.1917 24.154 25.2906 24.0894 25.3738 24.0408L25.4012 24.0255C25.8104 23.7957 26.2649 23.5405 26.8493 23.6635C27.3742 23.7713 29.1755 25.1909 29.6734 25.694C29.9992 26.0174 30.1803 26.3588 30.2074 26.7092C30.2617 28.012 28.5148 29.4764 28.0984 29.728C27.2113 30.3748 26.0256 30.3659 24.5954 29.719C23.0657 29.0991 21.2372 27.7963 19.4721 26.2151C18.8403 25.649 17.6269 24.4573 17.2816 24.0592C15.4984 22.1276 13.9959 20.0522 13.2898 18.3721C12.9549 17.6624 12.792 17.0065 12.792 16.4225C12.792 15.8475 12.9549 15.3354 13.2717 14.8952C13.4618 14.5627 14.9915 12.7479 16.3402 12.7928C16.6752 12.8287 17.0191 12.9995 17.354 13.3229C17.8609 13.817 19.3182 15.6049 19.4269 16.135C19.5508 16.7061 19.2938 17.1569 19.0623 17.5631L19.0467 17.5905C18.9945 17.6806 18.9238 17.7876 18.8464 17.9045L18.8464 17.9045C18.5615 18.3352 18.1871 18.9012 18.3217 19.2616C18.6575 20.0881 19.1372 20.8967 19.7156 21.6424C20.3575 22.4099 21.3639 23.385 21.9251 23.7803Z" stroke="#FF7474" stroke-width="1.58333"/>
</svg>
