<svg width="23" height="23" viewBox="0 0 23 23" fill="none" xmlns="http://www.w3.org/2000/svg">
<path d="M12.0142 14.2606C12.6935 14.7392 13.4057 15.1416 14.1399 15.4461C14.5957 15.6114 15.311 15.1433 15.837 14.7991L15.8371 14.799C15.9685 14.713 16.0881 14.6347 16.1889 14.576L16.222 14.5574C16.7174 14.2792 17.2675 13.9703 17.9749 14.1192C18.6105 14.2497 20.791 15.9681 21.3936 16.5772C21.7881 16.9687 22.0072 17.382 22.0401 17.8061C22.1058 19.3831 19.9911 21.1559 19.487 21.4604C18.4132 22.2435 16.9778 22.2326 15.2466 21.4496C13.3948 20.6991 11.1814 19.1221 9.04475 17.208C8.27989 16.5228 6.81107 15.0801 6.39306 14.5983C4.23448 12.26 2.41557 9.74766 1.5609 7.71387C1.15548 6.85468 0.958252 6.06075 0.958252 5.35382C0.958252 4.65776 1.15548 4.03784 1.53899 3.50492C1.76909 3.10252 3.62087 0.905597 5.25351 0.959977C5.65893 1.00348 6.0753 1.21012 6.48072 1.60165C7.09433 2.19982 8.85845 4.36411 8.98994 5.00579C9.13996 5.69712 8.82889 6.24284 8.54865 6.73448L8.54865 6.73449L8.52973 6.76768C8.46657 6.87681 8.38094 7.00626 8.28732 7.14778L8.28732 7.14778C7.94243 7.66916 7.48918 8.35433 7.65206 8.79058C8.05857 9.79116 8.63931 10.77 9.33948 11.6727C10.1165 12.6018 11.3348 13.7821 12.0142 14.2606Z" stroke="#356EFF" stroke-width="1.91667"/>
</svg>
