<svg width="12" height="12" viewBox="0 0 12 12" fill="none" xmlns="http://www.w3.org/2000/svg">
<path fill-rule="evenodd" clip-rule="evenodd" d="M8.47138 4.97401C8.73173 4.71366 8.73173 4.29155 8.47138 4.0312C8.21103 3.77085 7.78892 3.77085 7.52857 4.0312L5.49998 6.05979L4.72138 5.2812C4.46103 5.02085 4.03892 5.02085 3.77858 5.2812C3.51823 5.54155 3.51823 5.96366 3.77858 6.22401L5.02816 7.47359C5.0283 7.47373 5.02844 7.47387 5.02858 7.47401C5.06112 7.50655 5.09619 7.53503 5.13316 7.55944C5.39192 7.73029 5.74358 7.70181 5.97138 7.47401C5.97154 7.47385 5.9717 7.47369 5.97186 7.47353L8.47138 4.97401Z" fill="white"/>
<path d="M0.666667 6C0.666667 7.22003 0.732909 8.15493 0.893461 8.87735C1.05233 9.5922 1.29454 10.0575 1.61853 10.3815C1.94252 10.7055 2.4078 10.9477 3.12265 11.1065C3.84507 11.2671 4.77997 11.3333 6 11.3333C7.22004 11.3333 8.15493 11.2671 8.87735 11.1065C9.5922 10.9477 10.0575 10.7055 10.3815 10.3815C10.7055 10.0575 10.9477 9.5922 11.1065 8.87735C11.2671 8.15493 11.3333 7.22003 11.3333 6C11.3333 4.77996 11.2671 3.84507 11.1065 3.12265C10.9477 2.4078 10.7055 1.94252 10.3815 1.61853C10.0575 1.29454 9.5922 1.05233 8.87735 0.893458C8.15493 0.732907 7.22004 0.666665 6 0.666665C4.77997 0.666665 3.84507 0.732907 3.12265 0.893458C2.4078 1.05233 1.94252 1.29454 1.61853 1.61853C1.29454 1.94252 1.05233 2.4078 0.893461 3.12265C0.732909 3.84507 0.666667 4.77996 0.666667 6Z" stroke="white" stroke-width="1.33333" stroke-linecap="round" stroke-linejoin="round"/>
</svg>
