<svg width="12" height="12" viewBox="0 0 12 12" fill="none" xmlns="http://www.w3.org/2000/svg">
<g id="Gift">
<path id="Squircle" d="M1.5 5.50006C1.5 10.6111 1.5 11.5 5.99995 11.5C10.4999 11.5 10.4999 10.6111 10.4999 5.50006" stroke="white" stroke-width="0.999989" stroke-linecap="round" stroke-linejoin="round"/>
<path id="Vector 126" d="M5.99999 1.74999C5.99999 1.06054 5.44035 0.5 4.75 0.5C4.05965 0.5 3.50001 1.05964 3.50001 1.74999C3.50001 2.44034 4.05965 2.99997 4.75 2.99997H5.99999M5.99999 1.74999C5.99999 2.23814 5.99999 2.99997 5.99999 2.99997M5.99999 1.74999C5.99999 1.06054 6.55963 0.5 7.24997 0.5C7.94032 0.5 8.49996 1.05964 8.49996 1.74999C8.49996 2.44034 7.9073 2.99997 7.24997 2.99997C6.62498 2.99997 5.99999 2.99997 5.99999 2.99997M5.99999 2.99997V11.4999M5.99999 2.99997C5.99999 2.99997 8.99991 2.99997 9.9999 2.99997C10.9999 2.99997 11.4999 3.24997 11.4999 4.24996C11.4999 5.24995 10.9999 5.49995 9.9999 5.49995C8.99991 5.49995 2.49998 5.49995 1.74999 5.49995C0.999995 5.49995 0.5 5.24995 0.5 4.24996C0.5 3.24997 0.941134 2.99997 1.74999 2.99997C2.55884 2.99997 5.99999 2.99997 5.99999 2.99997Z" stroke="white" stroke-width="0.999989" stroke-linecap="round" stroke-linejoin="round"/>
</g>
</svg>
