<svg width="12" height="12" viewBox="0 0 12 12" fill="none" xmlns="http://www.w3.org/2000/svg">
<path d="M1.50003 5.50006C1.50003 10.6111 1.50003 11.5 5.99998 11.5C10.4999 11.5 10.4999 10.6111 10.4999 5.50006" stroke="white" stroke-width="0.999989" stroke-linecap="round" stroke-linejoin="round"/>
<path d="M6.00005 1.74999C6.00005 1.06054 5.44041 0.5 4.75006 0.5C4.05971 0.5 3.50008 1.05964 3.50008 1.74999C3.50008 2.44034 4.05971 2.99997 4.75006 2.99997H6.00005M6.00005 1.74999C6.00005 2.23814 6.00005 2.99997 6.00005 2.99997M6.00005 1.74999C6.00005 1.06054 6.55969 0.5 7.25004 0.5C7.94038 0.5 8.50002 1.05964 8.50002 1.74999C8.50002 2.44034 7.90736 2.99997 7.25004 2.99997C6.62504 2.99997 6.00005 2.99997 6.00005 2.99997M6.00005 2.99997V11.4999M6.00005 2.99997C6.00005 2.99997 8.99997 2.99997 9.99996 2.99997C10.9999 2.99997 11.4999 3.24997 11.4999 4.24996C11.4999 5.24995 10.9999 5.49995 9.99996 5.49995C8.99997 5.49995 2.50004 5.49995 1.75005 5.49995C1.00006 5.49995 0.500061 5.24995 0.500061 4.24996C0.500061 3.24997 0.941195 2.99997 1.75005 2.99997C2.5589 2.99997 6.00005 2.99997 6.00005 2.99997Z" stroke="white" stroke-width="0.999989" stroke-linecap="round" stroke-linejoin="round"/>
</svg>
