<svg width="14" height="14" viewBox="0 0 14 14" fill="none" xmlns="http://www.w3.org/2000/svg">
<path d="M0.674447 6.8872C0.985844 8.46716 1.97855 9.79826 3.14368 10.8586C4.30537 11.9159 5.59482 12.6638 6.41375 13.0814C6.78634 13.2713 7.21367 13.2713 7.58626 13.0814C8.4052 12.6638 9.69465 11.9159 10.8563 10.8586C12.0215 9.79827 13.0142 8.46717 13.3256 6.8872C13.583 5.58103 13.3084 4.00688 12.3356 2.76618C11.3766 1.54309 9.68992 0.583332 7 0.583332C4.31009 0.583332 2.62339 1.54309 1.66439 2.76618C0.691584 4.00688 0.417012 5.58103 0.674447 6.8872Z" stroke="#212135" stroke-width="1.16667" stroke-linecap="round" stroke-linejoin="round"/>
<circle cx="2.33333" cy="2.33333" r="1.75" transform="matrix(-1 0 0 1 9.33334 3.5)" stroke="#212135" stroke-width="1.16667"/>
</svg>
