<svg width="23" height="25" viewBox="0 0 23 25" fill="none" xmlns="http://www.w3.org/2000/svg">
<g id="Exit">
<path id="Squircle" d="M1 12.5C1 14.84 1.06106 16.5017 1.25668 17.7352C1.4501 18.9548 1.76102 19.6562 2.18952 20.1492C2.62684 20.6523 3.28127 21.0491 4.39218 21.4735C5.21877 21.7892 6.21147 22.0906 7.45436 22.4679C7.90366 22.6042 8.38566 22.7506 8.90432 22.9111C10.7506 23.4824 12.0615 23.6022 12.9939 23.4235C13.8671 23.2562 14.4688 22.8176 14.928 22.062C15.4168 21.2577 15.753 20.0733 15.956 18.4349C16.1573 16.8094 16.2174 14.8317 16.2174 12.5C16.2174 10.1682 16.1573 8.19057 15.956 6.56507C15.753 4.92669 15.4168 3.74233 14.928 2.93805C14.4688 2.18242 13.8671 1.74377 12.9939 1.57648C12.0614 1.39784 10.7506 1.51757 8.90431 2.08891C8.38572 2.24939 7.90378 2.39568 7.45453 2.53205C6.21156 2.90934 5.21881 3.21068 4.39218 3.52646C3.28127 3.95084 2.62684 4.3476 2.18952 4.85072C1.76102 5.3437 1.4501 6.04512 1.25668 7.26477C1.06106 8.49824 1 10.1599 1 12.5Z" stroke="#212135" stroke-width="2" stroke-linecap="round" stroke-linejoin="round"/>
<ellipse id="Ellipse 53" cx="0.956522" cy="0.960001" rx="0.956522" ry="0.960001" transform="matrix(-1 0 0 1 13.3913 11.7031)" fill="#212135"/>
<path id="Squircle_2" d="M16.2609 21.1394C21.0435 21.1394 21.0435 19.9721 21.0435 12.6547C21.0435 5.33737 21.0435 3.85938 16.2609 3.85937" stroke="#212135" stroke-width="2" stroke-linecap="round" stroke-linejoin="round"/>
</g>
</svg>
