<svg width="18" height="16" viewBox="0 0 18 16" fill="none" xmlns="http://www.w3.org/2000/svg">
<g opacity="0.9">
<path d="M15.8696 2.77934C15.7047 2.50152 15.5137 2.26651 15.2946 2.06561C14.783 1.59666 14.0556 1.25578 12.9777 1.0362C11.8949 0.815597 10.5089 0.727272 8.7273 0.727272C6.37121 0.727272 4.72135 0.882805 3.5547 1.2813C2.60917 1.60427 1.99401 2.08121 1.57597 2.79471C1.68043 2.90834 1.80873 3.0452 1.95802 3.19945C2.40724 3.66359 3.04221 4.28069 3.7869 4.89562C4.53369 5.51227 5.37648 6.11479 6.24105 6.56009C7.1111 7.00823 7.95821 7.27376 8.72632 7.27273C9.49286 7.2717 10.3379 7.005 11.2055 6.55642C12.0677 6.11067 12.9079 5.50844 13.6523 4.8924C14.3946 4.27809 15.0274 3.66191 15.475 3.19854C15.6304 3.03762 15.763 2.89568 15.8696 2.77934ZM2.86076 6.0172C2.12088 5.40625 1.48623 4.7969 1.01875 4.31979C0.814581 5.25765 0.727296 6.45658 0.727296 8C0.727296 11.3137 1.1364 12.9961 2.16 13.9344C2.67159 14.4033 3.399 14.7442 4.47686 14.9638C5.55971 15.1844 6.94565 15.2727 8.7273 15.2727C10.5089 15.2727 11.8949 15.1844 12.9777 14.9638C14.0556 14.7442 14.783 14.4033 15.2946 13.9344C16.3182 12.9961 16.7273 11.3137 16.7273 8C16.7273 6.43404 16.6359 5.23238 16.4315 4.3014C15.9642 4.78015 15.3256 5.3956 14.5797 6.01297C13.7869 6.66904 12.8586 7.33923 11.8736 7.84849C10.894 8.35491 9.8133 8.72582 8.72827 8.72727C7.6409 8.72873 6.55731 8.35914 5.57502 7.85319C4.58723 7.34442 3.65603 6.6739 2.86076 6.0172Z" stroke="#212135" stroke-width="1.45455" stroke-linecap="round" stroke-linejoin="round"/>
</g>
</svg>
