<svg width="43" height="43" viewBox="0 0 43 43" fill="none" xmlns="http://www.w3.org/2000/svg">
<circle cx="21.1017" cy="21.1017" r="20.6017" fill="#F9FFFA" stroke="#49FF87"/>
<rect width="19" height="19" transform="translate(12 12)" fill="#F9FFFA"/>
<path d="M21.5 12.7917C23.4416 12.7917 24.9531 12.8798 26.1352 13.1073C27.3134 13.3339 28.1055 13.6882 28.6602 14.1772C29.7624 15.1487 30.2083 16.9045 30.2083 20.4445C30.2083 22.7257 30.0035 24.4042 29.4521 25.4977C29.1874 26.0226 28.8523 26.3922 28.4305 26.6381C28.0042 26.8867 27.4328 27.0417 26.646 27.0417C25.6318 27.0417 24.8705 27.2694 24.2753 27.6727C23.6942 28.0664 23.3438 28.5818 23.0831 28.9921C23.0436 29.0541 23.0067 29.1127 22.9718 29.1682C22.7532 29.5152 22.6117 29.7398 22.4154 29.916C22.2403 30.073 21.9958 30.2083 21.5002 30.2083C21.0047 30.2083 20.7601 30.073 20.5851 29.916C20.3887 29.7397 20.2473 29.5152 20.0287 29.1682C19.9937 29.1127 19.9568 29.0541 19.9174 28.992C19.6566 28.5818 19.3062 28.0664 18.7251 27.6727C18.1299 27.2694 17.3686 27.0417 16.3544 27.0417C15.5718 27.0417 15.0021 26.8828 14.576 26.6291C14.153 26.3774 13.8157 25.9992 13.5493 25.4664C12.996 24.3595 12.7917 22.678 12.7917 20.4445C12.7917 16.9495 13.2364 15.1892 14.3422 14.2062C14.8986 13.7116 15.692 13.3506 16.8686 13.1182C18.0496 12.8849 19.5601 12.7917 21.5 12.7917Z" stroke="#49FF87" stroke-width="1.58333" stroke-linecap="round" stroke-linejoin="round"/>
<path d="M17.542 19.125H20.7087" stroke="#49FF87" stroke-width="1.58333" stroke-linecap="round" stroke-linejoin="round"/>
<path d="M17.542 22.292H25.4587" stroke="#49FF87" stroke-width="1.58333" stroke-linecap="round" stroke-linejoin="round"/>
</svg>
