<svg width="15" height="16" viewBox="0 0 15 16" fill="none" xmlns="http://www.w3.org/2000/svg">
<g opacity="0.9">
<path d="M0.666705 12.6667C0.666705 13.3129 0.745256 13.7453 0.89555 14.0527C1.03351 14.3349 1.2579 14.5649 1.67795 14.7558C2.11979 14.9566 2.76368 15.1066 3.70684 15.2019C4.64361 15.2965 5.83022 15.3333 7.33337 15.3333C8.83652 15.3333 10.0231 15.2965 10.9599 15.2019C11.9031 15.1066 12.547 14.9566 12.9888 14.7558C13.4088 14.5649 13.6332 14.3349 13.7712 14.0527C13.9215 13.7453 14 13.3129 14 12.6667C14 12.0204 13.9215 11.588 13.7712 11.2806C13.6332 10.9985 13.4088 10.7685 12.9888 10.5775C12.547 10.3767 11.9031 10.2267 10.9599 10.1314C10.0231 10.0368 8.83652 10 7.33337 10C5.83022 10 4.64361 10.0368 3.70684 10.1314C2.76368 10.2267 2.11979 10.3767 1.67795 10.5775C1.2579 10.7685 1.03351 10.9985 0.89555 11.2806C0.745256 11.588 0.666705 12.0204 0.666705 12.6667Z" stroke="#212135" stroke-width="1.33333" stroke-linecap="round" stroke-linejoin="round"/>
<circle cx="4" cy="4" r="3.33333" transform="matrix(-1 0 0 1 11.3334 0)" stroke="#212135" stroke-width="1.33333"/>
</g>
</svg>
