<svg width="24" height="25" viewBox="0 0 24 25" fill="none" xmlns="http://www.w3.org/2000/svg">
<g id="Settings">
<path id="Star 1" d="M15.415 4.33878C14.7095 0.55374 9.2905 0.55374 8.58499 4.33878C8.41886 5.23006 7.49808 5.76091 6.64603 5.46004C3.01257 4.17704 0.312178 8.87772 3.23044 11.3784C3.91803 11.9676 3.91803 13.0324 3.23044 13.6216C0.312178 16.1223 3.01257 20.823 6.64603 19.54C7.49808 19.2391 8.41886 19.7699 8.58499 20.6612C9.2905 24.4463 14.7095 24.4463 15.415 20.6612C15.5811 19.7699 16.5019 19.2391 17.354 19.54C20.9874 20.823 23.6878 16.1223 20.7696 13.6216C20.082 13.0324 20.082 11.9676 20.7696 11.3784C23.6878 8.87772 20.9874 4.17704 17.354 5.46004C16.5019 5.76091 15.5811 5.23006 15.415 4.33878Z" stroke="#212135" stroke-width="2" stroke-linejoin="round"/>
<circle id="Ellipse 9" cx="4" cy="4" r="3" transform="matrix(-1 0 0 1 16 8.5)" stroke="#212135" stroke-width="2"/>
</g>
</svg>
