<svg width="28" height="25" viewBox="0 0 28 25" fill="none" xmlns="http://www.w3.org/2000/svg">
<g id="Group 1">
<path id="Squircle" d="M1 19.5C1 20.4834 1.09792 21.1606 1.29247 21.6469C1.47095 22.093 1.74358 22.4128 2.20633 22.6699C2.70523 22.9471 3.45205 23.1649 4.58956 23.3053C5.71904 23.4448 7.1593 23.5 9 23.5C10.8407 23.5 12.281 23.4448 13.4104 23.3053C14.5479 23.1649 15.2948 22.9471 15.7937 22.6699C16.2564 22.4128 16.5291 22.093 16.7075 21.6469C16.9021 21.1606 17 20.4834 17 19.5C17 18.5166 16.9021 17.8394 16.7075 17.3531C16.5291 16.907 16.2564 16.5872 15.7937 16.3301C15.2948 16.0529 14.5479 15.8351 13.4104 15.6947C12.281 15.5552 10.8407 15.5 9 15.5C7.1593 15.5 5.71904 15.5552 4.58956 15.6947C3.45205 15.8351 2.70523 16.0529 2.20633 16.3301C1.74358 16.5872 1.47095 16.907 1.29247 17.3531C1.09792 17.8394 1 18.5166 1 19.5Z" stroke="#212135" stroke-width="2" stroke-linecap="round" stroke-linejoin="round"/>
<circle id="Ellipse 37" cx="6" cy="6" r="5" transform="matrix(-1 0 0 1 15 0.5)" stroke="#212135" stroke-width="2"/>
<path id="Ellipse 38" d="M17 3.5C19.4 3.5 21 5.5 21 7.5C21 9.5 19.4 11.5 17 11.5" stroke="#212135" stroke-width="2" stroke-linecap="round" stroke-linejoin="round"/>
<path id="Vector 42" d="M21.1333 21.5C24.8667 21.5 27 21 27 18C27 15 24.8667 14.5 19 14.5" stroke="#212135" stroke-width="2" stroke-linecap="round" stroke-linejoin="round"/>
</g>
</svg>
