<svg width="12" height="12" viewBox="0 0 12 12" fill="none" xmlns="http://www.w3.org/2000/svg">
<path d="M1.10735 8.61723C0.682954 8.20381 0.508423 7.60855 0.546765 6.84924C0.585327 6.08555 0.838673 5.21939 1.19477 4.36866C1.54856 3.52345 1.99064 2.72425 2.37941 2.10296C2.75292 1.50603 3.0496 1.11744 3.15826 1.0001C3.1713 0.994253 3.19786 0.983134 3.24316 0.968691C3.34036 0.937697 3.47851 0.905216 3.65798 0.873209C4.01532 0.809482 4.48524 0.756454 5.01153 0.712426C6.06161 0.624578 7.28471 0.576554 8.17542 0.54246C8.63708 0.524789 9.11935 0.806632 9.35088 1.22715C9.78239 2.01088 10.3482 3.08663 10.7895 4.03382C11.0107 4.50866 11.1957 4.94069 11.3169 5.28275C11.3777 5.45441 11.4184 5.59214 11.4405 5.69482C11.4535 5.7553 11.4567 5.78861 11.4578 5.80115C11.4562 5.80665 11.4543 5.81315 11.452 5.82069C11.4447 5.84406 11.4346 5.87417 11.4211 5.91129C11.3941 5.98565 11.3562 6.08054 11.3073 6.19375C11.2096 6.4199 11.0726 6.70838 10.9012 7.0347C10.558 7.68844 10.0849 8.4788 9.52748 9.21295C8.96622 9.95214 8.34072 10.606 7.69923 11.0162C7.06235 11.4235 6.46572 11.5584 5.90312 11.3824C5.49733 11.2555 4.47335 10.7372 3.41841 10.1322C2.90199 9.83603 2.39558 9.52918 1.97698 9.25553C1.54638 8.97405 1.24372 8.75008 1.10735 8.61723Z" stroke="white" stroke-width="1.08333" stroke-linecap="round" stroke-linejoin="round"/>
<circle cx="1.51472" cy="1.51472" r="0.973053" transform="matrix(0.866025 0.5 0.5 -0.866025 5.00122 4.35938)" stroke="white" stroke-width="1.08333"/>
<rect x="2.612" y="6.47656" width="5.04996" height="1.00981" rx="0.504906" transform="rotate(30 2.612 6.47656)" fill="white"/>
</svg>
