<svg width="12" height="12" viewBox="0 0 12 12" fill="none" xmlns="http://www.w3.org/2000/svg">
<path d="M1.26613 4.90857C0.998104 4.90857 0.941562 4.90581 0.902594 4.89745L0.797741 5.38633L0.902592 4.89745C0.712256 4.85663 0.550586 4.68995 0.515591 4.49845C0.508336 4.45875 0.507229 4.40801 0.514876 4.15753C0.539968 3.33556 0.60622 2.84126 0.754236 2.4436C1.03222 1.69679 1.41344 1.26184 1.99447 0.936157C2.49877 0.653487 3.28684 0.5 4.8891 0.5H7.1109C8.71316 0.5 9.50123 0.653487 10.0055 0.936156C10.5866 1.26184 10.9678 1.69679 11.2458 2.4436C11.3938 2.84125 11.46 3.33555 11.4851 4.15752C11.4928 4.40801 11.4917 4.45876 11.4844 4.49845L11.9763 4.58835L11.4844 4.49846C11.4494 4.68995 11.2877 4.85663 11.0974 4.89745C11.0584 4.90581 11.0019 4.90857 10.7339 4.90857C10.0393 4.90857 9.64069 5.55884 9.64069 6.13647C9.64069 6.7141 10.0393 7.36437 10.7339 7.36437C10.9964 7.36437 11.0512 7.36707 11.0901 7.37537C11.2801 7.41591 11.4473 7.591 11.4791 7.7827C11.4857 7.82269 11.4861 7.86929 11.4751 8.10637C11.4442 8.77537 11.3766 9.20501 11.2458 9.5564C10.9678 10.3032 10.5866 10.7382 10.0055 11.0638C9.50123 11.3465 8.71316 11.5 7.1109 11.5H4.8891C3.28684 11.5 2.49877 11.3465 1.99447 11.0638C1.41344 10.7382 1.03222 10.3032 0.754236 9.5564C0.62344 9.20501 0.555753 8.77537 0.524872 8.10636C0.513929 7.86929 0.514327 7.8227 0.520949 7.7827C0.552685 7.59101 0.719884 7.41591 0.90991 7.37537C0.948798 7.36707 1.00364 7.36437 1.26613 7.36437C1.96066 7.36437 2.3593 6.71409 2.3593 6.13647C2.3593 5.55884 1.96066 4.90857 1.26613 4.90857Z" stroke="white"/>
<path fill-rule="evenodd" clip-rule="evenodd" d="M7.5 2C7.77614 2 8 2.22386 8 2.5L8 3.5C8 3.77614 7.77614 4 7.5 4C7.22386 4 7 3.77614 7 3.5V2.5C7 2.22386 7.22386 2 7.5 2ZM7.5 5C7.77614 5 8 5.22386 8 5.5L8 6.5C8 6.77614 7.77614 7 7.5 7C7.22386 7 7 6.77614 7 6.5V5.5C7 5.22386 7.22386 5 7.5 5ZM8 8.5C8 8.22386 7.77614 8 7.5 8C7.22386 8 7 8.22386 7 8.5V9.5C7 9.77614 7.22386 10 7.5 10C7.77614 10 8 9.77614 8 9.5L8 8.5Z" fill="white"/>
</svg>
