<svg width="43" height="43" viewBox="0 0 43 43" fill="none" xmlns="http://www.w3.org/2000/svg">
<circle cx="21.1017" cy="21.1017" r="20.6017" fill="#F9FAFF" stroke="#356EFF"/>
<rect width="19" height="13.1035" transform="translate(12 15)" fill="#F9FAFF"/>
<path d="M12.6552 21.5518C12.6552 24.2664 12.9947 25.6171 13.8186 26.3661C14.2312 26.7412 14.8217 27.0175 15.7068 27.1963C16.5961 27.376 17.7366 27.4483 19.2069 27.4483C20.6772 27.4483 21.8177 27.376 22.707 27.1963C23.5921 27.0175 24.1826 26.7412 24.5952 26.3661C25.4191 25.6171 25.7586 24.2664 25.7586 21.5518C25.7586 18.8371 25.4191 17.4865 24.5952 16.7375C24.1826 16.3624 23.5921 16.0861 22.707 15.9073C21.8177 15.7276 20.6772 15.6552 19.2069 15.6552C17.7366 15.6552 16.5961 15.7276 15.7068 15.9073C14.8217 16.0861 14.2312 16.3624 13.8186 16.7375C12.9947 17.4865 12.6552 18.8371 12.6552 21.5518Z" stroke="#356EFF" stroke-width="1.31034" stroke-linecap="round" stroke-linejoin="round"/>
<path d="M25.7588 18.4307C28.2687 16.2201 29.8354 16.7515 30.1266 18.4307C30.4178 20.11 30.4178 22.7799 30.1266 24.4486C29.8756 26.6593 28.2687 26.7208 25.7588 24.5102" stroke="#356EFF" stroke-width="1.31034"/>
</svg>
