<svg width="28" height="20" viewBox="0 0 28 20" fill="none" xmlns="http://www.w3.org/2000/svg">
<path d="M0.965517 9.65537C0.965517 13.6559 1.46585 15.6464 2.68002 16.7502C3.28801 17.3029 4.15835 17.7101 5.46264 17.9736C6.77316 18.2384 8.45399 18.345 10.6207 18.345C12.7874 18.345 14.4682 18.2384 15.7787 17.9736C17.083 17.7101 17.9534 17.3029 18.5614 16.7502C19.7755 15.6464 20.2759 13.6559 20.2759 9.65537C20.2759 5.65484 19.7755 3.66437 18.5614 2.56058C17.9534 2.00785 17.083 1.60062 15.7787 1.3371C14.4682 1.07233 12.7874 0.965719 10.6207 0.965719C8.45399 0.965719 6.77316 1.07233 5.46264 1.3371C4.15835 1.60062 3.28801 2.00785 2.68002 2.56058C1.46585 3.66437 0.965517 5.65484 0.965517 9.65537Z" stroke="#356EFF" stroke-width="1.93103" stroke-linecap="round" stroke-linejoin="round"/>
<path d="M20.2759 5.05646C23.9747 1.79862 26.2835 2.58177 26.7127 5.05645C27.1418 7.53113 27.1418 11.4657 26.7127 13.9248C26.3428 17.1827 23.9747 17.2734 20.2759 14.0156" stroke="#356EFF" stroke-width="1.93103"/>
</svg>
