<svg width="17" height="17" viewBox="0 0 17 17" fill="none" xmlns="http://www.w3.org/2000/svg">
<path d="M11.3333 7.08301L7.79167 10.6247L6.375 9.20801" stroke="#356EFF" stroke-width="1.41667" stroke-linecap="round" stroke-linejoin="round"/>
<path d="M7.21852 1.34454C7.86206 0.495831 9.13794 0.495831 9.78148 1.34454L10.5852 2.40451C10.7608 2.63605 11.0476 2.75486 11.3355 2.71528L12.6533 2.53409C13.7085 2.38901 14.6107 3.2912 14.4656 4.34637L14.2844 5.6642C14.2448 5.95207 14.3636 6.2389 14.5952 6.41447L15.6551 7.2182C16.5038 7.86173 16.5038 9.13762 15.6551 9.78115L14.5952 10.5849C14.3636 10.7604 14.2448 11.0473 14.2844 11.3351L14.4656 12.653C14.6107 13.7082 13.7085 14.6103 12.6533 14.4653L11.3355 14.2841C11.0476 14.2445 10.7608 14.3633 10.5852 14.5948L9.78148 15.6548C9.13794 16.5035 7.86206 16.5035 7.21852 15.6548L6.4148 14.5948C6.23923 14.3633 5.9524 14.2445 5.66453 14.2841L4.3467 14.4653C3.29152 14.6103 2.38933 13.7082 2.53441 12.653L2.71561 11.3351C2.75519 11.0473 2.63638 10.7604 2.40484 10.5849L1.34486 9.78115C0.496156 9.13762 0.496156 7.86173 1.34486 7.2182L2.40484 6.41447C2.63638 6.2389 2.75519 5.95207 2.71561 5.6642L2.53441 4.34637C2.38933 3.2912 3.29152 2.38901 4.3467 2.53409L5.66453 2.71528C5.9524 2.75486 6.23923 2.63605 6.4148 2.40451L7.21852 1.34454Z" stroke="#356EFF" stroke-width="1.41667"/>
</svg>
